#!OML:ASF E:\emotionWalksFemale\Project 1\Capture day 1\Session 1\Female1.ASF
:FULLY-SPECIFIED
:DEGREES
66
root 8.10341 15.1109 42.0573 -177.482 -0.335054 -176.886
lowerback 7.9369 2.89477 -6.2126
upperback -1.55765 2.4939 -5.33956
thorax -6.1565 1.16727 -2.4395
lowerneck -3.17928 11.3452 3.17064
upperneck 11.7253 13.4894 8.64637
head 4.01823 6.91894 2.90937
rclavicle -5.96354e-016 -1.59028e-014
rhumerus -41.2858 56.8719 -131.586
rradius 46.5815
rwrist 8.10714
rhand 3.71324 -57.8417
rfingers 7.12502
rthumb 29.1419 -85.581
lclavicle -5.96354e-016 -1.59028e-014
lhumerus -60.596 -66.1832 146.952
lradius 103.819
lwrist 32.5163
lhand 12.8591 -31.63
lfingers 7.12502
lthumb 37.8328 -5.78549
rfemur -11.4216 10.2697 25.1383
rtibia 29.8652
rfoot -21.0372 -21.5281
rtoes 3.3836
lfemur -13.7742 -19.831 -21.0193
ltibia 34.0828
lfoot -29.3035 16.8354
ltoes -13.9368
67
root 8.10027 15.1135 42.06 -177.365 -0.454765 -176.899
lowerback 7.90643 2.80553 -6.10292
upperback -1.46939 2.41048 -5.27525
thorax -6.04114 1.12622 -2.41522
lowerneck -3.61228 11.9542 3.36733
upperneck 11.566 14.383 8.14103
head 4.07164 7.37252 2.77484
rclavicle 1.43125e-014 9.54166e-014
rhumerus -41.236 57.2043 -131.496
rradius 46.7809
rwrist 7.74951
rhand 3.05548 -57.6031
rfingers 7.12502
rthumb 28.5136 -85.4494
lclavicle 1.43125e-014 9.54166e-014
lhumerus -59.8673 -66.2558 146.307
lradius 103.746
lwrist 32.5061
lhand 13.221 -31.7738
lfingers 7.12502
lthumb 38.1745 -6.02225
rfemur -11.6219 10.2234 25.0911
rtibia 29.9812
rfoot -21.1939 -21.5568
rtoes 3.44316
lfemur -13.9052 -19.8253 -20.972
ltibia 33.992
lfoot -29.2057 16.7918
ltoes -11.6898
68
root 8.09593 15.1138 42.0605 -177.334 -0.523523 -176.951
lowerback 7.91155 2.87724 -5.93338
upperback -1.55 2.50844 -5.35753
thorax -6.11841 1.16693 -2.61334
lowerneck -2.96745 12.4471 4.06326
upperneck 10.9226 15.1762 7.40293
head 3.81631 7.75062 2.37318
rclavicle 3.27995e-014 9.54166e-015
rhumerus -41.1197 56.7106 -131.42
rradius 46.8742
rwrist 7.88875
rhand 3.78846 -57.1843
rfingers 7.12502
rthumb 29.2137 -84.9111
lclavicle 3.27995e-014 9.54166e-015
lhumerus -60.7038 -66.2615 147.025
lradius 103.838
lwrist 32.5062
lhand 13.2283 -31.7079
lfingers 7.12502
lthumb 38.1814 -5.9583
rfemur -11.703 10.2102 25.0098
rtibia 30.0641
rfoot -21.3062 -21.4836
rtoes 4.00488
lfemur -13.9071 -19.8304 -21.0274
ltibia 33.9202
lfoot -29.2325 16.7323
ltoes -10.9245
69
root 8.09284 15.1131 42.0597 -177.386 -0.511173 -177.007
lowerback 7.94273 2.93611 -5.88615
upperback -1.56479 2.59449 -5.32889
thorax -6.15057 1.21069 -2.62358
lowerneck -2.53866 12.8968 4.29015
upperneck 10.3464 15.9053 6.93003
head 3.57691 8.09703 2.14705
rclavicle -7.59357e-014 3.81667e-014
rhumerus -41.3404 56.7072 -131.513
rradius 47.1359
rwrist 7.96445
rhand 4.33719 -57.5207
rfingers 7.12502
rthumb 29.7376 -85.1552
lclavicle -7.59357e-014 3.81667e-014
lhumerus -60.8977 -66.2655 147.256
lradius 103.99
lwrist 32.5647
lhand 13.1759 -31.3995
lfingers 7.12502
lthumb 38.132 -5.6363
rfemur -11.6617 10.2668 24.9535
rtibia 30.1229
rfoot -21.327 -21.5172
rtoes 3.9781
lfemur -13.7886 -19.9062 -21.1383
ltibia 33.861
lfoot -29.2743 16.8933
ltoes -11.5197
70
root 8.08989 15.1149 42.0609 -177.356 -0.558119 -177.027
lowerback 7.94238 2.97001 -5.77047
upperback -1.67821 2.65203 -5.30646
thorax -6.26554 1.2404 -2.6776
lowerneck -1.7143 13.2335 4.77054
upperneck 9.62935 16.5153 6.19171
head 3.27349 8.37524 1.76229
rclavicle -7.7526e-015 -2.8625e-014
rhumerus -41.5371 56.4779 -131.639
rradius 47.1637
rwrist 7.88807
rhand 4.34782 -57.3022
rfingers 7.12502
rthumb 29.7477 -84.9349
lclavicle -7.7526e-015 -2.8625e-014
lhumerus -61.3512 -66.2031 147.621
lradius 104.191
lwrist 32.557
lhand 13.0477 -31.2059
lfingers 7.12502
lthumb 38.0109 -5.40961
rfemur -11.7148 10.3467 24.9288
rtibia 30.1881
rfoot -21.4241 -21.6845
rtoes 3.86964
lfemur -13.8 -20.119 -21.1677
ltibia 33.7991
lfoot -29.234 17.1164
ltoes -11.9801
71
root 8.08667 15.1138 42.064 -177.346 -0.638204 -177.135
lowerback 8.03891 2.99976 -5.7355
upperback -1.77838 2.67635 -5.32813
thorax -6.4247 1.25222 -2.73397
lowerneck -0.798046 13.5116 5.5338
upperneck 8.79496 17.0853 5.01975
head 2.99691 8.63279 1.2044
rclavicle 7.95139e-015 -9.22361e-014
rhumerus -41.6022 56.2464 -131.777
rradius 47.0372
rwrist 7.73183
rhand 4.21431 -57.0081
rfingers 7.12502
rthumb 29.6203 -84.6635
lclavicle 7.95139e-015 -9.22361e-014
lhumerus -61.9152 -66.1884 148.022
lradius 104.343
lwrist 32.4937
lhand 13.0629 -31.2191
lfingers 7.12502
lthumb 38.0253 -5.42671
rfemur -11.7626 10.3761 24.7984
rtibia 30.2368
rfoot -21.5241 -21.796
rtoes 3.92712
lfemur -13.8207 -20.3696 -21.2852
ltibia 33.7479
lfoot -29.2785 17.1477
ltoes -11.2715
72
root 8.08307 15.1115 42.0671 -177.371 -0.737526 -177.244
lowerback 8.14796 3.06019 -5.68815
upperback -1.82878 2.73948 -5.38394
thorax -6.53589 1.27931 -2.83719
lowerneck -0.400433 13.7469 6.09689
upperneck 8.39288 17.513 4.15501
head 2.92992 8.83642 0.836836
rclavicle 1.45113e-014 -4.77083e-014
rhumerus -41.4696 55.9629 -131.673
rradius 46.9933
rwrist 7.75855
rhand 4.50815 -56.8668
rfingers 7.12502
rthumb 29.9007 -84.472
lclavicle 1.45113e-014 -4.77083e-014
lhumerus -62.4845 -66.2029 148.551
lradius 104.355
lwrist 32.4798
lhand 13.1819 -31.3115
lfingers 7.12502
lthumb 38.1376 -5.54987
rfemur -11.763 10.3507 24.6719
rtibia 30.2715
rfoot -21.5572 -22.0303
rtoes 3.33653
lfemur -13.7888 -20.5995 -21.4157
ltibia 33.7063
lfoot -29.4049 16.9935
ltoes -11.0141
